General                          : ChattChitto RG - Movies
==========
Complete name                    : Bad Lieutenant-Port of Call New Orleans 2009 BDRip.mp4
Format                           : MPEG-4
Format profile                   : Base Media
Codec ID                         : isom
File size                        : 2.27 GiB
Duration                         : 2h 2mn
Overall bit rate                 : 2 658 Kbps
Encoded date                     : UTC 2010-04-08 15:37:21

Video
==========
ID                               : 1
Format                           : AVC
Format/Info                      : Advanced Video Codec
Format profile                   : High@L3.1
Format settings, CABAC           : Yes
Format settings, ReFrames        : 3 frames
Codec ID                         : avc1
Codec ID/Info                    : Advanced Video Coding
Duration                         : 2h 2mn
Bit rate mode                    : Variable
Bit rate                         : 2 300 Kbps
Maximum bit rate                 : 14.5 Mbps
Width                            : 1 280 pixels
Height                           : 688 pixels
Display aspect ratio             : 1.860
Frame rate mode                  : Constant
Frame rate                       : 23.976 fps
Resolution                       : 8 bits
Colorimetry                      : 4:2:0
Scan type                        : Progressive
Bits/(Pixel*Frame)               : 0.109
Stream size                      : 1.96 GiB (87%)
Writing library                  : x264 core 76 r1271 496d79d
Encoded date                     : UTC 2010-04-08 15:05:02

Audio
==========
ID                               : 2
Format                           : AAC
Format/Info                      : Advanced Audio Codec
Format version                   : Version 4
Format profile                   : LC
Format settings, SBR             : No
Codec ID                         : 40
Duration                         : 2h 2mn
Bit rate mode                    : Variable
Bit rate                         : 352.8 Kbps
Maximum bit rate                 : 478 Kbps
Channel(s)                       : 6 channels
Channel positions                : Front: L C R, Side: L R, LFE
Sampling rate                    : 48.0 KHz
Stream size                      : 310 MiB (13%)
Encoded date                     : UTC 2010-04-08 15:38:46
Tagged date                      : UTC 2010-04-08 15:38:57

Subtitles                        : English




----------------------------------------------------
IMDB Link: http://www.imdb.com/title/tt1095217/
----------------------------------------------------


Screen Shots:
==============
http://bayimg.com/EALBMaAcN
http://bayimg.com/EalBLaACN
http://bayimg.com/eALbkAacn
http://bayimg.com/EalbjaaCn
http://bayimg.com/EalbiAACn



Plot:
======
In the aftermath of Hurricane Katrina, Terence McDonagh (Nicholas Cage) is awarded a bittersweet promotion to Lieutenant within his local precinct, for a seemingly heroic action which left him crippled by back pain. Prowling the streets day and night, McDonagh's riddled with internal conflict over his increasing addiction to any drug he can get his hands on, his duty to uphold the law, a misguided relationship with a high-class prostitute (Eva Mendes), and a laundry list of other life stressors. In the background of his continuous downward spiral, McDonagh's been assigned to a case involving the ritualistic killing of five victims caught in a local drug war. Knowing he has little evidence to go on, the boundary-pushing Lieutenant embarks on a precarious manhunt that takes him even further down his cocaine-laden rabbit hole, as he steps head first into the land of compromise and self-indulgence.




Release Info:
==============
original name .... : Bad Lieutenant-Port of Call New Orleans 2009 BDRip.mp4
ripper.............: Recalled2Life (R2L)
encoder............: Recalled2Life (R2L)
video codec........: H264/.MP4                   
video bitrate......: 2300 Kbps                           
audio codec........: AAC-LC	                                        
aspect ratio.......: 1.860                              
resolution.........: 1280 x 688                             
genre..............: Crime | Drama          
runtime............: 2h 2mn
language...........: English                              
subtitles..........: English
sample.............: Yes [14.8 MB]
2ch Audio..........: 2ch Audio for XBox Viewers 



Source:
========
Bad Lieutenant-Port of Call New Orleans Blu-Ray 1080p MPEG-4 AVC/DT-HD 5.1 [20.4 GB]


Notes:
=======
ChattChitto RG Encourages Burning this Film with ConvertXtoDVD.
Enhanced and Filtered for your viewing pleasure ;)